<svg xmlns="http://www.w3.org/2000/svg" width="554.667" height="554.667" version="1.0" viewBox="0 0 416 416"><path d="M7.4 107.4c-6.2 6.2-6.9 4.7 24.4 45.8 10.7 13.9 30 39.6 43 57 15.6 20.9 24.6 32.1 26.4 32.8 1.6.7 4.3.9 6.2.6 3-.6 5.2-2.9 17.7-18.9 7.9-10 17-21.8 20.3-26.2 3.3-4.4 6.3-8.2 6.6-8.5.3-.3 1.8-2.3 3.4-4.5 5.1-7 8.9-10.6 9.8-9.2.4.6.8 29.4.8 63.9 0 37.4.4 63.7 1 65.2 1.6 4.3 5.7 5.6 17.8 5.6 6 0 12.3-.5 14-1.1 6.6-2.3 6.2 4.1 6.2-102.4s.4-100.1-6.2-102.4c-4-1.4-26.6-1.4-30.6 0-3.3 1.1-2.5.1-42.2 54.4-10.5 14.3-19.7 26.1-20.4 26.3-.8.2-8.1-8.6-17.4-21-8.8-11.7-22.1-29.4-29.6-39.3-8.7-11.5-14.7-18.6-16.8-19.7-2.7-1.5-5.9-1.8-17.1-1.8H10.8l-3.4 3.4zM245.3 105.6c-4.5 2.3-5.6 6.4-5.1 20.7.3 10.5.5 11.9 2.6 13.9l2.3 2.3 51.2.5c57.6.6 54.1.1 61.5 8.5 3.1 3.5 4.1 5.6 4.6 9.5 1.2 9-.8 15.2-6.6 20.7-6.5 6.1-8 6.3-58.6 6.3-27.4 0-47.1.4-49.3 1-6.5 1.8-7.4 3.7-7.7 16.9-.4 12.9.4 16.1 4.5 18.8 2.5 1.7 6.8 1.8 55.8 2.3 52.2.5 53.1.5 57.1 2.7 10 5.3 14.4 11.7 14.4 20.6 0 7.1-2 11.7-7 16-7 5.9-7.3 6-66.1 6.4l-53.7.4-2.3 2.5c-2.3 2.4-2.4 3.2-2.4 16.5 0 13.1.1 14 2.3 16.1l2.3 2.3h53.2c29.2 0 55.2-.4 57.7-.8 17.6-3.3 30.2-9 39.7-18 9.9-9.3 14.6-19.7 15.9-34.8 1.5-18.8-4.1-33.7-17.3-45.8l-7.6-7 3.2-3.6c3.4-3.9 5.9-8.4 9.2-16.6 2.6-6.7 3.7-24.8 2-33-4-18.6-19-35.4-37-41.4-14.3-4.7-14.3-4.7-66.1-5.1-44.6-.4-49.8-.3-52.7 1.2zM6.9 243.9 4 246.8v28.1c0 18.2.4 28.8 1.1 30.4 1.9 4.2 6.8 5.7 18.5 5.7 6.9 0 11.6-.5 14-1.5 5.9-2.4 6.4-5 6.4-32.8 0-13.5-.3-25.8-.6-27.6-.4-1.7-1.8-4.2-3.2-5.6-2.4-2.4-2.9-2.5-16.4-2.5h-14l-2.9 2.9z"/></svg>