<?xml version="1.0" standalone="no"?>
<!DOCTYPE svg PUBLIC "-//W3C//DTD SVG 20010904//EN"
 "http://www.w3.org/TR/2001/REC-SVG-20010904/DTD/svg10.dtd">
<svg version="1.0" xmlns="http://www.w3.org/2000/svg"
 width="416.000000pt" height="416.000000pt" viewBox="0 0 416.000000 416.000000"
 preserveAspectRatio="xMidYMid meet">

<g transform="translate(0.000000,416.000000) scale(0.100000,-0.100000)"
stroke="none">
<path d="M74 3086 c-62 -62 -69 -47 244 -458 107 -139 300 -396 430 -570 156
-209 246 -321 264 -328 16 -7 43 -9 62 -6 30 6 52 29 177 189 79 100 170 218
203 262 33 44 63 82 66 85 3 3 18 23 34 45 51 70 89 106 98 92 4 -6 8 -294 8
-639 0 -374 4 -637 10 -652 16 -43 57 -56 178 -56 60 0 123 5 140 11 66 23 62
-41 62 1024 0 1065 4 1001 -62 1024 -40 14 -266 14 -306 0 -33 -11 -25 -1
-422 -544 -105 -143 -197 -261 -204 -263 -8 -2 -81 86 -174 210 -88 117 -221
294 -296 393 -87 115 -147 186 -168 197 -27 15 -59 18 -171 18 l-139 0 -34
-34z"/>
<path d="M2453 3104 c-45 -23 -56 -64 -51 -207 3 -105 5 -119 26 -139 l23 -23
512 -5 c576 -6 541 -1 615 -85 31 -35 41 -56 46 -95 12 -90 -8 -152 -66 -207
-65 -61 -80 -63 -586 -63 -274 0 -471 -4 -493 -10 -65 -18 -74 -37 -77 -169
-4 -129 4 -161 45 -188 25 -17 68 -18 558 -23 522 -5 531 -5 571 -27 100 -53
144 -117 144 -206 0 -71 -20 -117 -70 -160 -70 -59 -73 -60 -661 -64 l-537 -4
-23 -25 c-23 -24 -24 -32 -24 -165 0 -131 1 -140 23 -161 l23 -23 532 0 c292
0 552 4 577 8 176 33 302 90 397 180 99 93 146 197 159 348 15 188 -41 337
-173 458 l-76 70 32 36 c34 39 59 84 92 166 26 67 37 248 20 330 -40 186 -190
354 -370 414 -143 47 -143 47 -661 51 -446 4 -498 3 -527 -12z"/>
<path d="M69 1721 l-29 -29 0 -281 c0 -182 4 -288 11 -304 19 -42 68 -57 185
-57 69 0 116 5 140 15 59 24 64 50 64 328 0 135 -3 258 -6 276 -4 17 -18 42
-32 56 -24 24 -29 25 -164 25 l-140 0 -29 -29z"/>
</g>
</svg>
