<?xml version="1.0" encoding="UTF-8"?>
<svg id="Layer_1" data-name="Layer 1" xmlns="http://www.w3.org/2000/svg" viewBox="0 0 512 512">
  <defs>
    <style>
      .cls-1 {
        fill: #61dafb;
        stroke-width: 0px;
      }
    </style>
  </defs>
  <path class="cls-1" d="m469.22,209.78c0-28.49-35.67-55.48-90.37-72.23,12.62-55.75,7.01-100.1-17.71-114.3-5.7-3.33-12.36-4.91-19.63-4.91v19.55c4.03,0,7.28.79,9.99,2.28,11.92,6.84,17.09,32.87,13.06,66.35-.96,8.24-2.54,16.92-4.47,25.77-17.18-4.21-35.94-7.45-55.66-9.55-11.83-16.22-24.1-30.94-36.46-43.83,28.58-26.56,55.4-41.11,73.63-41.11v-19.55c-24.11,0-55.66,17.18-87.57,46.98-31.91-29.63-63.46-46.63-87.57-46.63v19.55c18.14,0,45.05,14.46,73.63,40.85-12.27,12.89-24.54,27.52-36.2,43.74-19.81,2.1-38.57,5.35-55.75,9.64-2.02-8.77-3.51-17.27-4.56-25.42-4.12-33.48.96-59.52,12.8-66.44,2.63-1.58,6.05-2.28,10.08-2.28v-19.55c-7.36,0-14.03,1.58-19.81,4.91-24.63,14.2-30.15,58.47-17.44,114.04-54.52,16.83-90.02,43.74-90.02,72.14s35.68,55.49,90.37,72.23c-12.62,55.75-7.01,100.1,17.71,114.3,5.7,3.33,12.36,4.91,19.72,4.91,24.1,0,55.66-17.18,87.57-46.98,31.91,29.63,63.46,46.63,87.57,46.63,7.36,0,14.02-1.58,19.81-4.91,24.63-14.2,30.15-58.47,17.44-114.04,54.35-16.74,89.85-43.74,89.85-72.14h0Zm-114.12-58.46c-3.24,11.31-7.28,22.96-11.83,34.62-3.59-7.01-7.36-14.02-11.48-21.04-4.03-7.01-8.33-13.85-12.62-20.51,12.45,1.84,24.46,4.12,35.94,6.92h0Zm-40.15,93.35c-6.84,11.83-13.85,23.05-21.12,33.49-13.06,1.14-26.3,1.75-39.62,1.75s-26.47-.61-39.44-1.67c-7.28-10.43-14.38-21.56-21.21-33.31-6.66-11.48-12.71-23.14-18.23-34.88,5.44-11.75,11.57-23.49,18.15-34.97,6.84-11.83,13.85-23.05,21.12-33.48,13.06-1.14,26.3-1.75,39.62-1.75s26.47.61,39.44,1.67c7.28,10.43,14.38,21.56,21.21,33.31,6.66,11.48,12.71,23.14,18.23,34.89-5.52,11.74-11.57,23.49-18.15,34.97Zm28.31-11.39c4.6,11.42,8.64,23.07,12.1,34.88-11.48,2.8-23.58,5.17-36.11,7.01,4.29-6.75,8.59-13.67,12.62-20.77,4.03-7.01,7.8-14.11,11.39-21.12h0Zm-88.88,93.53c-8.15-8.42-16.3-17.8-24.37-28.05,7.89.35,15.95.61,24.1.61s16.39-.17,24.37-.61c-7.52,9.78-15.57,19.14-24.11,28.05Zm-65.21-51.63c-12.45-1.84-24.46-4.12-35.94-6.92,3.24-11.31,7.28-22.97,11.83-34.62,3.59,7.01,7.36,14.03,11.48,21.04,4.12,7.01,8.33,13.85,12.62,20.51Zm64.78-182.41c8.15,8.41,16.3,17.79,24.37,28.05-7.89-.35-15.95-.61-24.1-.61s-16.39.18-24.37.61c7.52-9.78,15.57-19.14,24.1-28.05Zm-64.87,51.63c-4.29,6.75-8.59,13.67-12.62,20.77-4.03,7.01-7.8,14.03-11.4,21.04-4.6-11.42-8.64-23.07-12.1-34.89,11.48-2.72,23.58-5.08,36.11-6.92Zm-79.33,109.74c-31.03-13.24-51.1-30.59-51.1-44.35s20.07-31.2,51.1-44.35c7.54-3.24,15.78-6.14,24.28-8.85,5,17.18,11.57,35.06,19.72,53.38-8.06,18.23-14.55,36.03-19.46,53.12-8.68-2.72-16.92-5.7-24.54-8.94h0Zm47.16,125.26c-11.92-6.84-17.09-32.87-13.06-66.35.96-8.24,2.54-16.92,4.47-25.77,17.18,4.21,35.94,7.45,55.66,9.56,11.83,16.22,24.1,30.94,36.46,43.83-28.58,26.56-55.4,41.11-73.63,41.11-3.94-.09-7.27-.88-9.9-2.37Zm207.92-66.79c4.12,33.48-.96,59.52-12.8,66.44-2.63,1.58-6.05,2.28-10.08,2.28-18.14,0-45.05-14.46-73.63-40.85,12.27-12.89,24.54-27.52,36.2-43.74,19.81-2.1,38.57-5.35,55.75-9.64,2.02,8.85,3.59,17.36,4.56,25.51h0Zm33.75-58.47c-7.54,3.24-15.78,6.14-24.28,8.85-5-17.18-11.57-35.06-19.72-53.38,8.07-18.23,14.55-36.03,19.46-53.12,8.68,2.72,16.92,5.7,24.63,8.94,31.03,13.23,51.1,30.59,51.1,44.35-.09,13.76-20.16,31.21-51.19,44.35h0Z"/>
  <path class="cls-1" d="m254.11,249.84c22.12,0,40.06-17.93,40.06-40.06s-17.93-40.06-40.06-40.06-40.06,17.93-40.06,40.06,17.93,40.06,40.06,40.06ZM58.71,470.19h-13.22v22.77h-7.46v-56.3h18.64c6.34,0,11.21,1.44,14.62,4.33,3.43,2.89,5.14,7.09,5.14,12.6,0,3.51-.95,6.56-2.86,9.17-1.88,2.6-4.51,4.55-7.89,5.84l13.22,23.89v.46h-7.96l-12.22-22.77Zm-13.22-6.07h11.41c3.69,0,6.61-.95,8.78-2.86,2.19-1.91,3.29-4.46,3.29-7.66,0-3.48-1.04-6.15-3.13-8-2.06-1.86-5.05-2.8-8.97-2.82h-11.37v21.34Zm57.61,29.62c-5.67,0-10.29-1.86-13.84-5.57-3.56-3.74-5.34-8.73-5.34-14.96v-1.32c0-4.15.79-7.85,2.36-11.1,1.6-3.28,3.82-5.83,6.65-7.66,2.86-1.86,5.95-2.79,9.28-2.79,5.44,0,9.67,1.79,12.68,5.37,3.02,3.58,4.52,8.71,4.52,15.39v2.98h-28.34c.1,4.13,1.3,7.46,3.6,10.02,2.32,2.52,5.26,3.79,8.82,3.79,2.53,0,4.66-.52,6.42-1.55,1.75-1.03,3.29-2.4,4.6-4.1l4.37,3.4c-3.51,5.39-8.76,8.08-15.77,8.08h0Zm-.89-37.51c-2.89,0-5.31,1.06-7.27,3.17-1.96,2.09-3.17,5.03-3.63,8.82h20.96v-.54c-.21-3.63-1.19-6.44-2.94-8.43-1.75-2.01-4.13-3.01-7.12-3.01h0Zm51.35,36.73c-.41-.83-.75-2.29-1.01-4.41-3.33,3.45-7.3,5.18-11.91,5.18-4.12,0-7.51-1.16-10.17-3.48-2.63-2.35-3.94-5.31-3.94-8.89,0-4.36,1.65-7.73,4.95-10.13,3.32-2.42,7.99-3.64,14-3.64h6.96v-3.29c0-2.5-.75-4.49-2.24-5.95-1.5-1.5-3.7-2.24-6.61-2.24-2.55,0-4.69.64-6.42,1.93-1.73,1.29-2.59,2.85-2.59,4.68h-7.19c0-2.09.74-4.1,2.2-6.03,1.5-1.96,3.51-3.5,6.03-4.64,2.55-1.13,5.35-1.7,8.39-1.7,4.82,0,8.6,1.21,11.33,3.64,2.73,2.4,4.15,5.71,4.25,9.94v19.26c0,3.84.49,6.9,1.47,9.16v.62h-7.5Zm-11.87-5.45c2.24,0,4.37-.58,6.38-1.74,2.01-1.16,3.47-2.67,4.37-4.52v-8.58h-5.61c-8.76,0-13.15,2.56-13.15,7.69,0,2.24.75,4,2.24,5.26,1.5,1.26,3.42,1.9,5.76,1.9h0Zm45.89.39c2.55,0,4.78-.77,6.69-2.32s2.96-3.48,3.17-5.8h6.77c-.13,2.4-.95,4.68-2.48,6.84s-3.56,3.89-6.11,5.18c-2.53,1.29-5.21,1.93-8.04,1.93-5.7,0-10.23-1.9-13.61-5.68-3.35-3.82-5.03-9.02-5.03-15.62v-1.2c0-4.07.75-7.7,2.24-10.86,1.5-3.17,3.63-5.63,6.42-7.39,2.81-1.75,6.12-2.63,9.94-2.63,4.69,0,8.58,1.41,11.68,4.22,3.12,2.81,4.78,6.46,4.99,10.94h-6.77c-.21-2.71-1.24-4.92-3.09-6.65-1.83-1.75-4.1-2.63-6.81-2.63-3.63,0-6.46,1.31-8.47,3.94-1.98,2.6-2.98,6.38-2.98,11.33v1.35c0,4.82.99,8.53,2.98,11.13,1.99,2.6,4.82,3.91,8.51,3.91h0Zm34.37-46.9v10.13h7.81v5.53h-7.81v25.94c0,1.68.35,2.94,1.04,3.79.7.83,1.88,1.24,3.56,1.24.82,0,1.96-.15,3.4-.46v5.8c-1.88.52-3.71.77-5.49.77-3.19,0-5.61-.97-7.23-2.9-1.62-1.93-2.43-4.68-2.43-8.24v-25.94h-7.62v-5.53h7.62v-10.13h7.15Zm80.23,51.96h-7.46l-28.34-43.38v43.38h-7.46v-56.3h7.46l28.42,43.58v-43.58h7.39v56.3Zm37.89,0c-.41-.83-.75-2.29-1.01-4.41-3.33,3.45-7.3,5.18-11.91,5.18-4.12,0-7.51-1.16-10.17-3.48-2.63-2.35-3.94-5.31-3.94-8.89,0-4.36,1.65-7.73,4.95-10.13,3.32-2.42,7.99-3.64,14-3.64h6.96v-3.29c0-2.5-.75-4.49-2.24-5.95-1.49-1.5-3.7-2.24-6.61-2.24-2.55,0-4.69.64-6.42,1.93-1.73,1.29-2.59,2.85-2.59,4.68h-7.19c0-2.09.74-4.1,2.2-6.03,1.5-1.96,3.51-3.5,6.03-4.64,2.55-1.13,5.35-1.7,8.39-1.7,4.82,0,8.6,1.21,11.33,3.64,2.73,2.4,4.15,5.71,4.25,9.94v19.26c0,3.84.49,6.9,1.47,9.16v.62h-7.5Zm-11.87-5.45c2.24,0,4.37-.58,6.38-1.74,2.01-1.16,3.47-2.67,4.37-4.52v-8.58h-5.61c-8.76,0-13.15,2.56-13.15,7.69,0,2.24.75,4,2.24,5.26,1.5,1.26,3.42,1.9,5.76,1.9h0Zm38.82-46.51v10.13h7.81v5.53h-7.81v25.94c0,1.68.35,2.94,1.04,3.79.7.83,1.88,1.24,3.56,1.24.82,0,1.96-.15,3.4-.46v5.8c-1.88.52-3.71.77-5.49.77-3.19,0-5.61-.97-7.23-2.9-1.62-1.93-2.43-4.68-2.43-8.24v-25.94h-7.62v-5.53h7.62v-10.13h7.15Zm23.97,51.96h-7.15v-41.83h7.15v41.83Zm-7.73-52.93c0-1.16.35-2.14,1.04-2.94.72-.8,1.78-1.2,3.17-1.2s2.45.4,3.17,1.2,1.08,1.78,1.08,2.94-.36,2.13-1.08,2.9c-.72.77-1.78,1.16-3.17,1.16s-2.45-.39-3.17-1.16c-.7-.77-1.04-1.74-1.04-2.9Zm33.02,43.23l10.36-32.13h7.31l-15,41.83h-5.45l-15.15-41.83h7.31l10.63,32.13Zm41.37,10.48c-5.67,0-10.28-1.86-13.84-5.57-3.56-3.74-5.34-8.73-5.34-14.96v-1.32c0-4.15.79-7.85,2.36-11.1,1.6-3.28,3.81-5.83,6.65-7.66,2.86-1.86,5.95-2.79,9.28-2.79,5.44,0,9.67,1.79,12.68,5.37,3.01,3.58,4.52,8.71,4.52,15.39v2.98h-28.34c.1,4.13,1.3,7.46,3.6,10.02,2.32,2.52,5.26,3.79,8.81,3.79,2.53,0,4.67-.52,6.42-1.55s3.29-2.4,4.6-4.1l4.37,3.4c-3.51,5.39-8.77,8.08-15.78,8.08h0Zm-.89-37.51c-2.89,0-5.31,1.06-7.27,3.17-1.96,2.09-3.17,5.03-3.63,8.82h20.95v-.54c-.21-3.63-1.19-6.44-2.94-8.43-1.75-2.01-4.12-3.01-7.11-3.01h0Z"/>
</svg>